<?xml version="1.0" encoding="UTF-8"?>
<svg xmlns="http://www.w3.org/2000/svg" xmlns:xlink="http://www.w3.org/1999/xlink" width="180" height="58.033" viewBox="0 0 180 58.033">
  <defs>
    <clipPath id="clip-path">
      <rect id="Rectangle_74" data-name="Rectangle 74" width="180" height="58.033" fill="none"></rect>
    </clipPath>
  </defs>
  <g id="Menu" transform="translate(-140 -30)">
    <g id="Groupe_87" data-name="Groupe 87" transform="translate(140 30)">
      <g id="Groupe_86" data-name="Groupe 86" clip-path="url(#clip-path)">
        <path id="Tracé_128" data-name="Tracé 128" d="M9.848,3.22c5.733,0,8.722,3.2,8.722,7.632s-2.989,7.667-8.722,7.667H4.5v9.637H0V3.22ZM14,10.887C14,8.6,12.626,7.194,9.6,7.194H4.5v7.351H9.6c3.025,0,4.4-1.372,4.4-3.658" transform="translate(0 -2.728)"></path>
        <path id="Tracé_129" data-name="Tracé 129" d="M157.026,3.22c5.944,0,8.652,3.728,8.652,7.737a7.15,7.15,0,0,1-4.748,7l4.572,10.2h-4.994l-4.045-9.426h-5.381v9.426H146.51V3.22Zm4.115,7.667c0-2-1.477-3.693-4.115-3.693h-5.979V14.65h5.944c2.673,0,4.15-1.407,4.15-3.763" transform="translate(-124.107 -2.728)"></path>
        <path id="Tracé_130" data-name="Tracé 130" d="M296.377,23.107c-2.743-2.708-3.587-6.084-3.587-10.164s.809-7.386,3.587-10.129a11.286,11.286,0,0,1,14.912,0c2.814,2.708,3.587,6.049,3.587,10.129s-.809,7.421-3.587,10.164a11.286,11.286,0,0,1-14.912,0m11.782-2.954c1.688-1.759,2.11-4.045,2.11-7.21s-.422-5.416-2.11-7.175a6.487,6.487,0,0,0-8.652,0c-1.688,1.759-2.11,4.009-2.11,7.175s.422,5.451,2.11,7.21a6.487,6.487,0,0,0,8.652,0" transform="translate(-248.018)"></path>
        <path id="Tracé_131" data-name="Tracé 131" d="M476.978,3.22c5.733,0,8.722,3.2,8.722,7.632s-2.989,7.667-8.722,7.667h-5.346v9.637h-4.5V3.22Zm4.15,7.667c0-2.286-1.372-3.693-4.4-3.693h-5.1v7.351h5.1c3.025,0,4.4-1.372,4.4-3.658" transform="translate(-395.699 -2.728)"></path>
        <path id="Tracé_132" data-name="Tracé 132" d="M631.048,3.22V7.335H618.175v5.8h11.29v4.08h-11.29v6.823h12.872v4.115H613.64V3.22Z" transform="translate(-519.806 -2.728)"></path>
        <path id="Tracé_133" data-name="Tracé 133" d="M769.046,3.22c5.944,0,8.652,3.728,8.652,7.737a7.15,7.15,0,0,1-4.748,7l4.572,10.2h-4.994l-4.045-9.426H763.1v9.426H758.53V3.22Zm4.115,7.667c0-2-1.477-3.693-4.115-3.693h-5.979V14.65h5.944c2.673,0,4.15-1.407,4.15-3.763" transform="translate(-642.54 -2.728)"></path>
        <path id="Tracé_134" data-name="Tracé 134" d="M891.71,7.44V3.22h20.012V7.44h-7.737V28.156h-4.537V7.44Z" transform="translate(-755.355 -2.728)"></path>
        <path id="Tracé_135" data-name="Tracé 135" d="M1033.61,3.22h5.065l6.014,10.832L1050.7,3.22h4.854l-8.722,15.194v9.742h-4.572V18.414Z" transform="translate(-875.556 -2.728)"></path>
        <rect id="Rectangle_73" data-name="Rectangle 73" width="4.607" height="24.936" transform="translate(0 32.604)"></rect>
        <path id="Tracé_136" data-name="Tracé 136" d="M93.312,213.22v24.936H88.388L77.837,219.3v18.851H73.37V213.22H79.1l9.742,17.233V213.22Z" transform="translate(-62.151 -180.616)"></path>
        <path id="Tracé_137" data-name="Tracé 137" d="M232.518,213.22l6.049,19.344,6.014-19.344h4.572l-8.124,24.936h-5.135L227.7,213.22Z" transform="translate(-192.881 -180.616)"></path>
        <path id="Tracé_138" data-name="Tracé 138" d="M407.258,213.22v4.115H394.385v5.8h11.29v4.08h-11.29v6.823h12.872v4.115H389.85V213.22Z" transform="translate(-330.236 -180.616)"></path>
        <path id="Tracé_139" data-name="Tracé 139" d="M523.01,227.55h4.713c.035,2.708,2.321,4.467,5.416,4.467s5.311-1.2,5.311-3.728c0-1.794-1.477-2.638-3.2-2.919l-4.783-.774c-4.115-.668-6.788-2.849-6.788-6.893,0-4.5,4.572-7.7,9.5-7.7,5.17,0,9.391,3.13,9.461,7.737h-4.642c-.106-2.392-2.181-3.869-4.889-3.869-2.532,0-4.889,1.161-4.889,3.517,0,1.512,1.231,2.5,3.025,2.778l4.642.739c4.08.633,7.14,2.954,7.14,7.14,0,4.959-4.467,7.878-9.953,7.878-5.662,0-10.059-3.236-10.059-8.371" transform="translate(-443.034 -177.888)"></path>
        <path id="Tracé_140" data-name="Tracé 140" d="M663.08,217.44v-4.22h20.012v4.22h-7.737v20.715h-4.537V217.44Z" transform="translate(-561.686 -180.616)"></path>
        <path id="Tracé_141" data-name="Tracé 141" d="M850.4,238.279H835.92l20.949-24.919h14.484Z" transform="translate(-708.096 -180.734)" fill="#f07d00"></path>
      </g>
    </g>
  </g>
</svg>
