<svg xmlns="http://www.w3.org/2000/svg" width="149.806" height="71.73" viewBox="0 0 149.806 71.73"><path d="M433.081,384.355V364.548h-3.871v-1.126h8.462v20.933h3.872v1.126H429.209v-1.126Z" transform="translate(-429.209 -354.96)" fill="#344c60"/><path d="M439.84,384.486h3.871V364.679H439.84v-1.126H448.3v4.232h.09q2.16-4.772,7.787-4.772a7.136,7.136,0,0,1,5,1.509q1.619,1.508,1.62,4.838v15.126h3.557v1.126h-11.7v-1.126h3.557v-14.9a7.472,7.472,0,0,0-.744-3.6,2.962,2.962,0,0,0-2.858-1.35,5.341,5.341,0,0,0-4.637,2.386,9.814,9.814,0,0,0-1.665,5.762v11.7h3.555v1.126H439.84Z" transform="translate(-425.794 -355.091)" fill="#344c60"/><path d="M458.577,364.548v-1.126h12.694v1.126h-4.1l5.537,15.035,5.807-15.035h-4.367v-1.126h9.139v1.126h-3.242l-8.418,20.965h-1.26L462,364.548Z" transform="translate(-419.776 -354.96)" fill="#344c60"/><path d="M497.14,373.187H482.1v.361q0,2.071.135,3.6a17.56,17.56,0,0,0,.54,3.039,6.986,6.986,0,0,0,1.126,2.453,5.217,5.217,0,0,0,1.936,1.531,6.7,6.7,0,0,0,2.926.585q5.266,0,7.337-5.762l.991.359a10.227,10.227,0,0,1-3.736,5.29,11.342,11.342,0,0,1-6.212,1.508,9.115,9.115,0,0,1-7.518-3.286,12.748,12.748,0,0,1-2.656-8.284,12.219,12.219,0,0,1,2.88-8.17,9.482,9.482,0,0,1,7.607-3.4,9.229,9.229,0,0,1,7,2.813,10.238,10.238,0,0,1,2.678,7.36m-15.035-1.4h9.633q0-1.26-.045-2.07a12.1,12.1,0,0,0-.315-1.982,5.592,5.592,0,0,0-.744-1.868,3.969,3.969,0,0,0-1.417-1.216,4.623,4.623,0,0,0-2.25-.518,3.743,3.743,0,0,0-2.364.789,4.92,4.92,0,0,0-1.531,2.025,12.112,12.112,0,0,0-.742,2.454,13.027,13.027,0,0,0-.225,2.386" transform="translate(-413.867 -355.091)" fill="#344c60"/><path d="M509.475,364.409v5.852h-1.081a9.661,9.661,0,0,0-1.733-4.277,4.706,4.706,0,0,0-3.939-1.575,4.363,4.363,0,0,0-2.678.787,2.711,2.711,0,0,0-1.058,2.319,2.885,2.885,0,0,0,.923,2.183A5.766,5.766,0,0,0,502.182,371q1.351.428,2.971,1.057a31.2,31.2,0,0,1,2.971,1.328,5.785,5.785,0,0,1,2.272,2.229,7.014,7.014,0,0,1,.923,3.691,5.794,5.794,0,0,1-2.588,5.042,10.114,10.114,0,0,1-5.92,1.8,22.874,22.874,0,0,1-7.7-1.4v-7.338h1.35a9.007,9.007,0,0,0,1.666,5.47,5.612,5.612,0,0,0,4.771,2.138,5.772,5.772,0,0,0,3.4-1.058,3.526,3.526,0,0,0,.608-5.244,5.624,5.624,0,0,0-2.229-1.485q-1.328-.5-2.9-1.148t-2.9-1.305a5.772,5.772,0,0,1-2.229-1.958,5.34,5.34,0,0,1-.9-3.106,6.155,6.155,0,0,1,2.07-4.931,7.605,7.605,0,0,1,5.132-1.777,23.116,23.116,0,0,1,6.528,1.4" transform="translate(-408.04 -355.091)" fill="#344c60"/><path d="M519.039,385.181h0a2.777,2.777,0,0,0,2.423-1.407c.11-.193.218-.4.328-.618l1.036.45-.406.81a5.981,5.981,0,0,1-5.672,3.061,5.087,5.087,0,0,1-5.086-5.088V366h-3.106v-1.126h3.106V358.89h4.591v5.988h5V366h-5v16.391a2.786,2.786,0,0,0,2.786,2.786" transform="translate(-403.723 -356.416)" fill="#344c60"/><path d="M429.209,357.017h8.462v8.462Z" transform="translate(-429.209 -357.017)" fill="#8d0034"/><path d="M474.347,404.814a4.825,4.825,0,0,1,1.615,3.6v1.169a3.815,3.815,0,0,0,3.814,3.814h5.569v-1.126a27.127,27.127,0,0,1-2.878-.067,2.855,2.855,0,0,1-1.058-.383,1.5,1.5,0,0,1-.7-1.036,5.975,5.975,0,0,1-.157-1.6c0-2.142-1.777-3.359-3.833-3.929Z" transform="translate(-414.71 -341.665)" fill="#344c60"/><path d="M508.459,413.355h0a2.777,2.777,0,0,0,2.423-1.407c.11-.193.218-.4.328-.618l1.036.451-.406.81a5.981,5.981,0,0,1-5.672,3.061,5.087,5.087,0,0,1-5.087-5.088V394.177h-3.106v-1.126h3.106v-5.988h4.591v5.988h5v1.126h-5v16.391a2.786,2.786,0,0,0,2.786,2.786" transform="translate(-407.121 -347.366)" fill="#344c60"/><path d="M532.122,412.661V392.853h-3.871v-1.126h8.462V396.9h.09a11.627,11.627,0,0,1,2.408-4.051,5.1,5.1,0,0,1,3.9-1.666,3.89,3.89,0,0,1,3.039,1.171,4.528,4.528,0,0,1,1.057,3.151q0,3.016-2.341,3.016a2.2,2.2,0,0,1-2.25-2.3,10.794,10.794,0,0,1,.112-1.171c.074-.569.112-.945.112-1.126a1.078,1.078,0,0,0-1.126-1.124q-1.754,0-3.376,3.2a14.825,14.825,0,0,0-1.621,6.8v9.859h3.736v1.126h-12.2v-1.126Z" transform="translate(-397.396 -346.042)" fill="#344c60"/><path d="M530.544,412.593a2.837,2.837,0,0,1-1.058-.382,1.5,1.5,0,0,1-.7-1.036,9.677,9.677,0,0,1-.157-1.981V397.76a6.517,6.517,0,0,0-1.733-4.884q-1.732-1.689-6.5-1.689a14.888,14.888,0,0,0-3.691.428,6.49,6.49,0,0,0-2.971,1.711,4.434,4.434,0,0,0-1.305,3.308q0,1.667,2.07,1.666a2.389,2.389,0,0,0,1.733-.518,2.546,2.546,0,0,0,.518-1.823,3.521,3.521,0,0,1,.968-2.858,4.358,4.358,0,0,1,2.813-.789,2.937,2.937,0,0,1,2.792,1.26,8.071,8.071,0,0,1,.72,3.872v2.523c-.173-.005-.347-.012-.515-.012h-.757a22.056,22.056,0,0,0-6.568.794,8.611,8.611,0,0,0-3.221,1.784,6.82,6.82,0,0,0-2.084,3.108,6.484,6.484,0,0,0-.316,1.983,6.023,6.023,0,0,0,.125,1.256,5.9,5.9,0,0,0,1.453,2.908,6.566,6.566,0,0,0,5.051,2.115h.254a9.908,9.908,0,0,0,4.1-.909,11.156,11.156,0,0,0,2.689-1.768,3.812,3.812,0,0,0,3.6,2.558h4.335v-1.126a14.192,14.192,0,0,1-1.644-.067m-9.355-.423a4.069,4.069,0,0,1-1.895.493h-.063a3.472,3.472,0,0,1-1.831-.494,3.831,3.831,0,0,1-1.138-1.048,5.073,5.073,0,0,1-.63-1.356,8.547,8.547,0,0,1-.316-2.465v-.494a9.416,9.416,0,0,1,.441-2.65,4.277,4.277,0,0,1,1.579-2.1,5.756,5.756,0,0,1,1.706-.74,12.9,12.9,0,0,1,1.893-.123h3.1v7.9a8.21,8.21,0,0,1-.831,1.352,5.651,5.651,0,0,1-2.02,1.72" transform="translate(-403.073 -346.042)" fill="#344c60"/><path d="M501.289,412.593a2.838,2.838,0,0,1-1.058-.382,1.5,1.5,0,0,1-.7-1.036,9.679,9.679,0,0,1-.157-1.981V397.76a6.517,6.517,0,0,0-1.733-4.884q-1.732-1.689-6.5-1.689a14.888,14.888,0,0,0-3.691.428,6.489,6.489,0,0,0-2.971,1.711,4.434,4.434,0,0,0-1.305,3.308q0,1.667,2.07,1.666a2.39,2.39,0,0,0,1.733-.518,2.546,2.546,0,0,0,.518-1.823,3.525,3.525,0,0,1,.967-2.858,4.364,4.364,0,0,1,2.814-.789,2.933,2.933,0,0,1,2.79,1.26,8.053,8.053,0,0,1,.721,3.872v2.523c-.173-.005-.348-.012-.515-.012h-.758a22.052,22.052,0,0,0-6.566.794,8.612,8.612,0,0,0-3.221,1.784,6.821,6.821,0,0,0-2.084,3.108,6.484,6.484,0,0,0-.316,1.983,6.021,6.021,0,0,0,.126,1.256,5.906,5.906,0,0,0,1.452,2.908,6.571,6.571,0,0,0,5.052,2.115h.252a9.91,9.91,0,0,0,4.105-.909A11.156,11.156,0,0,0,495,411.228a3.812,3.812,0,0,0,3.6,2.558h4.335v-1.126a14.191,14.191,0,0,1-1.644-.067m-9.355-.423a4.068,4.068,0,0,1-1.895.493h-.063a3.472,3.472,0,0,1-1.831-.494,3.833,3.833,0,0,1-1.138-1.048,5.122,5.122,0,0,1-.632-1.356,8.554,8.554,0,0,1-.314-2.465v-.494a9.415,9.415,0,0,1,.441-2.65,4.276,4.276,0,0,1,1.579-2.1,5.755,5.755,0,0,1,1.706-.74,12.9,12.9,0,0,1,1.893-.123h3.1v7.9a8.2,8.2,0,0,1-.831,1.352,5.648,5.648,0,0,1-2.02,1.72" transform="translate(-412.469 -346.042)" fill="#344c60"/><path d="M485.573,394.052a18.371,18.371,0,0,0-2.627-5.343,12.471,12.471,0,0,0-4.686-3.917,14.794,14.794,0,0,0-6.7-1.472h0a14.794,14.794,0,0,0-6.7,1.472,12.471,12.471,0,0,0-4.686,3.917,18.37,18.37,0,0,0-2.627,5.343,20.986,20.986,0,0,0,0,12.044,18.042,18.042,0,0,0,2.627,5.322,12.55,12.55,0,0,0,4.686,3.894c.219.11.444.211.671.309.1.041.2.079.295.119.123.049.246.1.369.143s.27.1.407.141c.081.026.162.053.244.078.162.05.326.1.491.145h.005a15.073,15.073,0,0,0,2.372.44h0c.284.03.573.053.865.067l.045,0c.3.016.609.022.921.024h.028c.312,0,.618-.008.922-.024l.041,0q.44-.022.868-.067h0a15.086,15.086,0,0,0,2.37-.44h.005c.166-.045.329-.1.491-.145l.246-.078c.136-.045.271-.093.4-.141s.247-.094.37-.143c.1-.04.2-.078.295-.119.227-.1.452-.2.671-.309a12.549,12.549,0,0,0,4.686-3.894,18.043,18.043,0,0,0,2.627-5.322,20.989,20.989,0,0,0,0-12.044m-5.412,11.818a21.966,21.966,0,0,1-1.177,4.733,6.962,6.962,0,0,1-2.739,3.554,9.6,9.6,0,0,1-9.374,0,6.962,6.962,0,0,1-2.739-3.554,21.81,21.81,0,0,1-1.177-4.733,45.138,45.138,0,0,1-.317-5.8q0-2.671.158-4.664a23.192,23.192,0,0,1,.724-4.121,11.043,11.043,0,0,1,1.494-3.464,7.157,7.157,0,0,1,2.6-2.218,9.232,9.232,0,0,1,7.878,0,7.178,7.178,0,0,1,2.6,2.218,11.074,11.074,0,0,1,1.494,3.464,23.3,23.3,0,0,1,.724,4.121q.159,1.994.158,4.664a45.124,45.124,0,0,1-.317,5.8" transform="translate(-420.391 -348.569)" fill="#344c60"/><g transform="translate(121.76 2.475)"><path d="M530.716,368.239l-9.349-9.349h9.349Z" transform="translate(-521.367 -358.89)" fill="#8d0034"/><path d="M537.792,368.239l-9.349-9.349h9.349Z" transform="translate(-519.095 -358.89)" fill="#8d0034"/><path d="M544.868,368.239l-9.349-9.349h9.349Z" transform="translate(-516.822 -358.89)" fill="#8d0034"/><path d="M530.716,375.315l-9.349-9.349h9.349Z" transform="translate(-521.367 -356.618)" fill="#8d0034"/><path d="M537.792,375.315l-9.349-9.349h9.349Z" transform="translate(-519.095 -356.618)" fill="#8d0034"/><path d="M544.868,375.315l-9.349-9.349h9.349Z" transform="translate(-516.822 -356.618)" fill="#8d0034"/><path d="M537.792,382.391l-9.349-9.349h9.349Z" transform="translate(-519.095 -354.344)" fill="#8d0034"/><path d="M544.868,382.391l-9.349-9.349h9.349Z" transform="translate(-516.822 -354.344)" fill="#8d0034"/></g></svg>